<svg width="280" height="150" viewBox="0 0 280 150" fill="none" xmlns="http://www.w3.org/2000/svg">
<path d="M153.313 137.592L85.8267 118.654V121.638L153.313 141.571L209.031 127.951V122.558L153.313 137.592Z" fill="#E0E4EC" stroke="#6E7E92" stroke-linecap="round" stroke-linejoin="round"/>
<path d="M69 20.6902L140.447 36.8646V106.571L69 86.9717L69 20.6902Z" fill="#E0E4EC" stroke="#6E7E92" stroke-linecap="round" stroke-linejoin="round"/>
<path d="M164.509 31.3237L164.509 134.452L209.028 123.907L209.028 21.8328L164.509 31.3237Z" fill="#E0E4EC" stroke="#6E7E92" stroke-linecap="round" stroke-linejoin="round"/>
<path d="M168.766 37.5716L168.766 81.0419L206.119 72.733L206.119 29.5213L168.766 37.5716Z" fill="#F8F9FD" stroke="#6E7E92" stroke-linecap="round" stroke-linejoin="round"/>
<path d="M168.759 86.9947L168.759 126.614L206.156 117.879V78.4753L168.759 86.9947Z" fill="#F8F9FD" stroke="#6E7E92" stroke-linecap="round" stroke-linejoin="round"/>
<path d="M140.281 36.5523L165.048 31.219V134.122L153.363 137.234L140.281 106.717V36.5523Z" fill="#E0E4EC" stroke="#6E7E92" stroke-linecap="round" stroke-linejoin="round"/>
<path d="M140.369 106.571L153.326 137.071L86.3264 119.071L69.041 86.8635L140.369 106.571Z" fill="#E0E4EC" stroke="#6E7E92" stroke-linecap="round" stroke-linejoin="round"/>
<path d="M148.907 59.6017L161.201 57.2898L161.201 76.7128L148.907 78.9493L148.907 59.6017Z" fill="#E0E4EC" stroke="#6E7E92" stroke-linecap="round" stroke-linejoin="round"/>
<path d="M69 20.651L140.217 36.821L208.985 21.8472L149.494 9.04028L69 20.651Z" fill="#E0E4EC" stroke="#6E7E92" stroke-linecap="round" stroke-linejoin="round"/>
</svg>
