<svg width="280" height="150" viewBox="0 0 280 150" fill="none" xmlns="http://www.w3.org/2000/svg">
<path d="M33.3831 47.9749L102.93 63.0062V97.0062L32.7876 79.2872L33.3831 47.9749Z" fill="#E0E4EC" stroke="#6E7E92" stroke-linecap="round" stroke-linejoin="round"/>
<path d="M127.466 60.6199L127.466 133.249L228.079 106.402V37.99L127.466 60.6199Z" fill="#E0E4EC" stroke="#6E7E92" stroke-linecap="round" stroke-linejoin="round"/>
<path d="M127.466 58.1421L127.466 132.242L181.058 117.996V46.7119L127.466 58.1421Z" fill="#E0E4EC" stroke="#6E7E92" stroke-linecap="round" stroke-linejoin="round"/>
<path d="M167.362 82.9384L178.457 80.4519L178.457 86.2564L167.362 88.6871L167.362 82.9384Z" fill="#E0E4EC" stroke="#6E7E92" stroke-linecap="round" stroke-linejoin="round"/>
<path d="M184.035 79.4809L195.129 76.9944L195.129 82.7988L184.035 85.2296L184.035 79.4809Z" fill="#E0E4EC" stroke="#6E7E92" stroke-linecap="round" stroke-linejoin="round"/>
<path d="M101.267 62.8706L127.505 57.2573V132.15L101.267 96.857L101.267 62.8706Z" fill="#E0E4EC" stroke="#6E7E92" stroke-linecap="round" stroke-linejoin="round"/>
<path d="M247.75 33.8018L228.151 36.5773L228.151 103.657L247.75 68.4869L247.75 33.8018Z" fill="#E0E4EC" stroke="#6E7E92" stroke-linecap="round" stroke-linejoin="round"/>
<path d="M111.983 81.6622L120.696 79.9524L120.696 91.5791L111.983 93.2331L111.983 81.6622Z" fill="#E0E4EC" stroke="#6E7E92" stroke-linecap="round" stroke-linejoin="round"/>
<path d="M33.3828 79.5725L101.269 96.5087L127.505 131.83L56.0104 113.882L33.3828 79.5725Z" fill="#E0E4EC" stroke="#6E7E92" stroke-linecap="round" stroke-linejoin="round"/>
<path d="M116.14 75.6053C116.394 77.1629 115.284 78.6488 113.662 78.924C112.04 79.1993 110.52 78.1597 110.266 76.6021C110.012 75.0445 111.121 73.5586 112.743 73.2833C114.365 73.0081 115.886 74.0476 116.14 75.6053Z" fill="#E0E4EC" stroke="#6E7E92" stroke-linecap="round" stroke-linejoin="round"/>
<path d="M123.677 74.4934C123.931 76.0511 122.822 77.5369 121.199 77.8122C119.577 78.0875 118.057 77.0479 117.803 75.4903C117.549 73.9326 118.658 72.4468 120.28 72.1715C121.902 71.8962 123.423 72.9358 123.677 74.4934Z" fill="#E0E4EC" stroke="#6E7E92" stroke-linecap="round" stroke-linejoin="round"/>
<path d="M179.287 19.0962L247.765 33.7831L225.122 38.8598L159.025 23.6686L179.287 19.0962Z" fill="#E0E4EC" stroke="#6E7E92" stroke-linecap="round" stroke-linejoin="round"/>
<path d="M33.3828 47.9744L100.67 64.9885L131.783 58.4563L162.896 51.9241L194.009 45.3919L225.122 38.8597L159.026 23.6685L127.615 29.7449L96.2042 35.8214L64.7935 41.8979L33.3828 47.9744Z" fill="#E0E4EC"/>
<path d="M96.2042 35.8214L162.896 51.9241M96.2042 35.8214L127.615 29.7449M96.2042 35.8214L64.7935 41.8979M162.896 51.9241L194.009 45.3919M162.896 51.9241L131.783 58.4563M127.615 29.7449L159.026 23.6685L225.122 38.8597L194.009 45.3919M127.615 29.7449L194.009 45.3919M64.7935 41.8979L33.3828 47.9744L100.67 64.9885L131.783 58.4563M64.7935 41.8979L131.783 58.4563" stroke="#6E7E92" stroke-linecap="round" stroke-linejoin="round"/>
<path d="M228.07 104.495L127.548 132.036L54.8271 113.642V117.453L127.548 136.898L228.07 108.539V104.495Z" fill="#E0E4EC" stroke="#6E7E92" stroke-linecap="round" stroke-linejoin="round"/>
</svg>
