<svg width="280" height="150" viewBox="0 0 280 150" fill="none" xmlns="http://www.w3.org/2000/svg">
<path d="M89.3862 113.5L154.006 129.646L216.166 113.946V118.386L154.006 136.507L89.3864 117.99L89.3862 113.5Z" fill="#E0E4EC" stroke="#6E7E92" stroke-linecap="round" stroke-linejoin="round"/>
<path d="M62.5137 28.6792L124.576 45.4462V88.565L62.5137 71.798L62.5137 28.6792Z" fill="#E0E4EC" stroke="#6E7E92" stroke-linecap="round" stroke-linejoin="round"/>
<path d="M62.5137 28.6792L124.577 45.4462L216.231 25.2454L158.11 12.6272L62.5137 28.6792Z" fill="#E0E4EC" stroke="#6E7E92" stroke-linecap="round" stroke-linejoin="round"/>
<path d="M153.777 39.3702L153.951 129.786L216.221 114.078L216.221 26.3668C216.221 25.579 216.164 25.1954 216.164 25.1954L153.777 39.3702Z" fill="#E0E4EC" stroke="#6E7E92" stroke-linecap="round" stroke-linejoin="round"/>
<path d="M157.62 40.7897L157.62 65.9412L214.78 52.8362V28.1702L157.62 40.7897Z" fill="#F8F9FD" stroke="#6E7E92" stroke-linecap="round" stroke-linejoin="round"/>
<path d="M157.62 70.7392L157.62 95.8906L214.78 82.7856V58.1196L157.62 70.7392Z" fill="#F8F9FD" stroke="#6E7E92" stroke-linecap="round" stroke-linejoin="round"/>
<path d="M157.62 100.689L157.62 124.87L214.78 109.823V87.0989L157.62 100.689Z" fill="#F8F9FD" stroke="#6E7E92" stroke-linecap="round" stroke-linejoin="round"/>
<path d="M124.957 45.1818L153.778 39.3345L153.998 129.609L125.176 88.7818L124.957 45.1818Z" fill="#E0E4EC" stroke="#6E7E92" stroke-linecap="round" stroke-linejoin="round"/>
<path d="M134.083 65.0582L146.573 62.6317L146.573 79.1343L134.083 81.4816L134.083 65.0582Z" fill="#E0E4EC" stroke="#6E7E92" stroke-linecap="round" stroke-linejoin="round"/>
<path d="M62.6035 72.0725L124.379 88.629L154.04 129.881L89.3486 113.444L62.6035 72.0725Z" fill="#E0E4EC" stroke="#6E7E92" stroke-linecap="round" stroke-linejoin="round"/>
</svg>
