<svg width="280" height="150" viewBox="0 0 280 150" fill="none" xmlns="http://www.w3.org/2000/svg">
<path d="M152.186 27.8764L151.576 138.397L216.388 121.795V19.1599L152.186 27.8764Z" fill="#E0E4EC" stroke="#6E7E92" stroke-linecap="round" stroke-linejoin="round"/>
<path d="M156.422 35.3622L156.422 130.431L213.935 115.036L213.935 23.6699L156.422 35.3622Z" fill="#E0E4EC" stroke="#6E7E92" stroke-linecap="round" stroke-linejoin="round"/>
<path d="M131.976 72.7192L145.032 70.1825L145.032 87.4345L131.976 89.8884L131.976 72.7192Z" fill="#E0E4EC" stroke="#6E7E92" stroke-linecap="round" stroke-linejoin="round"/>
<path d="M122.5 97L152.5 137V137.5L151 138L80.5 118.5L60.5 84V22.5L122.5 36V97Z" fill="#E0E4EC"/>
<path d="M122.5 97L152.5 137V137.5L151 138L80.5 118.5L60.5 84M122.5 97V36L60.5 22.5V84M122.5 97L60.5 84" stroke="#6E7E92" stroke-linecap="round" stroke-linejoin="round"/>
<path d="M122.434 35.9403L152.564 29.8274L152.564 137.905L151.056 138.38L122.434 97.0171L122.434 35.9403Z" fill="#E0E4EC" stroke="#6E7E92" stroke-linecap="round" stroke-linejoin="round"/>
<path d="M151.071 138.314L80 117.887V121.03L151.071 142.504L216.495 123.578V120.093L151.071 138.314Z" fill="#E0E4EC" stroke="#6E7E92" stroke-linecap="round" stroke-linejoin="round"/>
<path d="M60.519 22.5023L122 35.9999L216.385 19.3537L148.133 5.36084L60.519 22.5023Z" fill="#E0E4EC" stroke="#6E7E92" stroke-linecap="round" stroke-linejoin="round"/>
<path d="M132.976 68.0084L146.032 65.4717L146.032 82.7237L132.976 85.1776L132.976 68.0084Z" fill="#E0E4EC" stroke="#6E7E92" stroke-linecap="round" stroke-linejoin="round"/>
<path d="M160.422 83.6255L173.478 81.0889L173.478 90.3408L160.422 92.7948L160.422 83.6255Z" fill="#E0E4EC" stroke="#6E7E92" stroke-linecap="round" stroke-linejoin="round"/>
</svg>
